<svg width="764" height="768" viewBox="0 0 764 768" fill="none" xmlns="http://www.w3.org/2000/svg">
<path d="M637.5 0H0V768H635C647.562 755.2 633.31 611.667 597.545 540.5C575.545 461.5 575.353 449.475 597.545 374.5C623 288.5 625.5 212 597.545 166C560.988 105.845 605 48 637.5 0Z" fill="#4D9DE0"/>
<path d="M637.5 0H0V768H635C647.562 755.2 633.31 611.667 597.545 540.5C575.545 461.5 575.353 449.475 597.545 374.5C623 288.5 625.5 212 597.545 166C560.988 105.845 605 48 637.5 0Z" fill="url(#paint0_linear)" fill-opacity="0.65"/>
<path d="M475.5 316.5C468.7 390.5 491.979 409.041 505.812 410.374C538.812 403.374 573.312 344.874 538.812 294.874C511.212 254.874 482 291.5 475.5 316.5Z" fill="white"/>
<path d="M572.812 178.375C516.312 229.375 541.812 317.374 572.812 313.874C618.312 319.374 627.312 241.375 610.812 204.875C597.612 175.675 579.979 175.041 572.812 178.375Z" fill="white"/>
<path d="M689.312 541.375C748.112 509.375 734.812 453.875 717.312 439.875C686.113 435.875 660.312 386.875 651.312 362.874C610.912 313.275 578.479 352.874 567.312 378.874C558.146 393.374 531.812 422.874 499.812 424.874C467.812 426.874 468.812 459.375 473.312 475.375C476.812 490.541 490.712 523.875 518.312 535.875C545.912 547.875 563 532.778 574.812 527.875C596.012 519.075 612.646 521.875 618.312 524.375C655.512 541.575 681.146 542.875 689.312 541.375Z" fill="white"/>
<path d="M475.5 316.5C468.7 390.5 491.979 409.041 505.812 410.374C538.812 403.374 573.312 344.874 538.812 294.874C511.212 254.874 482 291.5 475.5 316.5Z" stroke="white"/>
<path d="M572.812 178.375C516.312 229.375 541.812 317.374 572.812 313.874C618.312 319.374 627.312 241.375 610.812 204.875C597.612 175.675 579.979 175.041 572.812 178.375Z" stroke="white"/>
<path d="M689.312 541.375C748.112 509.375 734.812 453.875 717.312 439.875C686.113 435.875 660.312 386.875 651.312 362.874C610.912 313.275 578.479 352.874 567.312 378.874C558.146 393.374 531.812 422.874 499.812 424.874C467.812 426.874 468.812 459.375 473.312 475.375C476.812 490.541 490.712 523.875 518.312 535.875C545.912 547.875 563 532.778 574.812 527.875C596.012 519.075 612.646 521.875 618.312 524.375C655.512 541.575 681.146 542.875 689.312 541.375Z" stroke="white"/>
<path d="M651.489 180.005C613.489 193.005 610.989 310.505 630.489 315.505C630.489 323.005 697.489 347.005 699.489 263.005C701.089 195.805 668.156 179.672 651.489 180.005Z" fill="#4D9DE0"/>
<path d="M716.489 288.505C674.089 316.105 669.156 368.672 671.989 391.505C699.489 453.005 752.989 415.505 763.489 380.505C767.889 298.105 733.989 284.838 716.489 288.505Z" fill="#4D9DE0"/>
<path d="M681.989 543.005C740.789 511.005 727.489 455.505 709.989 441.505C678.789 437.505 652.989 388.505 643.989 364.505C632.2 350.032 621.09 343.154 610.989 341.317C598.447 385.79 577.126 484.513 592.176 523.618C601.154 523.1 607.804 524.6 610.989 526.005C648.189 543.205 673.822 544.505 681.989 543.005Z" fill="#4D9DE0"/>
<path d="M651.489 180.005C613.489 193.005 610.989 310.505 630.489 315.505C630.489 323.005 697.489 347.005 699.489 263.005C701.089 195.805 668.156 179.672 651.489 180.005Z" stroke="white"/>
<path d="M716.489 288.505C674.089 316.105 669.156 368.672 671.989 391.505C699.489 453.005 752.989 415.505 763.489 380.505C767.889 298.105 733.989 284.838 716.489 288.505Z" stroke="white"/>
<path d="M681.989 543.005C740.789 511.005 727.489 455.505 709.989 441.505C678.789 437.505 652.989 388.505 643.989 364.505C632.2 350.032 621.09 343.154 610.989 341.317C598.447 385.79 577.126 484.513 592.176 523.618C601.154 523.1 607.804 524.6 610.989 526.005C648.189 543.205 673.822 544.505 681.989 543.005Z" stroke="white"/>
<defs>
<linearGradient id="paint0_linear" x1="-21.8082" y1="384" x2="608.013" y2="384" gradientUnits="userSpaceOnUse">
<stop stop-color="#0E3BD9" stop-opacity="0.5"/>
<stop offset="1" stop-color="white" stop-opacity="0"/>
</linearGradient>
</defs>
</svg>
